<svg width="16" height="16" viewBox="0 0 16 16" fill="none" xmlns="http://www.w3.org/2000/svg">
<path d="M12.75 4V10.5C12.75 10.6989 12.671 10.8897 12.5303 11.0303C12.3896 11.171 12.1989 11.25 12 11.25C11.8011 11.25 11.6103 11.171 11.4696 11.0303C11.329 10.8897 11.25 10.6989 11.25 10.5V5.8125L4.5306 12.5306C4.3897 12.6715 4.19861 12.7507 3.99935 12.7507C3.80009 12.7507 3.60899 12.6715 3.4681 12.5306C3.3272 12.3897 3.24805 12.1986 3.24805 11.9994C3.24805 11.8001 3.3272 11.609 3.4681 11.4681L10.1875 4.75H5.49997C5.30106 4.75 5.11029 4.67098 4.96964 4.53033C4.82899 4.38968 4.74997 4.19891 4.74997 4C4.74997 3.80109 4.82899 3.61032 4.96964 3.46967C5.11029 3.32902 5.30106 3.25 5.49997 3.25H12C12.1989 3.25 12.3896 3.32902 12.5303 3.46967C12.671 3.61032 12.75 3.80109 12.75 4Z" fill="#C7C7CC"/>
</svg>
